# xmcd
#
# Track frame offsets:
# 150
# 15317
# 53892
# 78920
#
# Disc length: 1297 seconds
#
#
# Revision: 1
# Processed by: cddbd v1.5.1PL2 Copyright (c) Steve Scherf et al.
# Submitted via: FreeRIP 2.945 
#
DISCID=20050f04
DTITLE=Elton John -  - The Last Song
DYEAR=1992
DGENRE=Ballad
TTITLE0=Elton John - The Last Song
TTITLE1=Elton John - Are You Ready For Love
TTITLE2=Elton John - Three Way Love Affair
TTITLE3=Elton John - Mama Can't Buy You Love
EXTD=
EXTT0=
EXTT1=
EXTT2=
EXTT3=
PLAYORDER=
